<svg width="31" height="30" viewBox="0 0 31 30" fill="none" xmlns="http://www.w3.org/2000/svg">
<g clip-path="url(#clip0_12_3699)">
<path d="M11.1456 0.970768C8.20141 1.99214 5.66233 3.93074 3.90132 6.50182C2.14032 9.07289 1.25022 12.1409 1.36176 15.2553C1.47329 18.3696 2.5806 21.3661 4.52102 23.8046C6.46144 26.2431 9.1327 27.9951 12.1424 28.8033C14.5825 29.4329 17.139 29.4605 19.5921 28.8838C21.8143 28.3847 23.8689 27.3169 25.5545 25.7852C27.3089 24.1423 28.5823 22.0523 29.2379 19.7399C29.9502 17.2252 30.077 14.5807 29.6085 12.0094H15.9064V17.6933H23.8417C23.6832 18.5998 23.3433 19.4651 22.8425 20.2372C22.3417 21.0093 21.6903 21.6725 20.9273 22.187C19.9584 22.8282 18.866 23.2595 17.7204 23.4532C16.5716 23.6668 15.3931 23.6668 14.2443 23.4532C13.0797 23.2127 11.9782 22.732 11.0098 22.042C9.45391 20.9406 8.28566 19.3759 7.67174 17.5713C7.04761 15.7328 7.04761 13.7397 7.67174 11.9012C8.10874 10.6125 8.83116 9.43915 9.78507 8.46873C10.8767 7.33782 12.2588 6.52943 13.7796 6.13227C15.3004 5.73511 16.9013 5.76452 18.4065 6.21727C19.5824 6.57807 20.6577 7.20874 21.5465 8.05896C22.4413 7.16881 23.3345 6.27636 24.2262 5.38161C24.6866 4.90047 25.1885 4.44235 25.642 3.9497C24.285 2.68703 22.6922 1.70446 20.9549 1.05825C17.7911 -0.090527 14.3294 -0.121399 11.1456 0.970768Z" fill="white"/>
<path d="M11.1462 0.970605C14.3297 -0.122304 17.7914 -0.0922449 20.9554 1.05578C22.6931 1.70638 24.2851 2.69369 25.6402 3.96104C25.1798 4.45369 24.6941 4.91412 24.2244 5.39295C23.3312 6.28464 22.4388 7.17325 21.5471 8.05879C20.6582 7.20858 19.5829 6.5779 18.407 6.21711C16.9023 5.76277 15.3015 5.73166 13.7803 6.12719C12.259 6.52273 10.8762 7.32963 9.78331 8.45936C8.8294 9.42978 8.10698 10.6031 7.66998 11.8918L2.89771 8.19692C4.60589 4.80951 7.5635 2.2184 11.1462 0.970605Z" fill="#E33629"/>
<path d="M1.63152 11.8569C1.88784 10.5856 2.3137 9.35448 2.89768 8.19653L7.66995 11.9006C7.04583 13.7391 7.04583 15.7322 7.66995 17.5707C6.07997 18.7985 4.48921 20.0324 2.89768 21.2725C1.43619 18.3634 0.990462 15.0488 1.63152 11.8569Z" fill="#F8BD00"/>
<path d="M15.9059 12.0059H29.6081C30.0765 14.5772 29.9497 17.2217 29.2374 19.7364C28.5819 22.0488 27.3085 24.1388 25.5541 25.7817C24.014 24.58 22.4669 23.3875 20.9268 22.1858C21.6904 21.6708 22.3421 21.0069 22.8429 20.2339C23.3437 19.461 23.6833 18.5949 23.8413 17.6875H15.9059C15.9036 15.7952 15.9059 13.9005 15.9059 12.0059Z" fill="#587DBD"/>
<path d="M2.89514 21.2721C4.48667 20.0443 6.07742 18.8104 7.66741 17.5703C8.28255 19.3756 9.45248 20.9404 11.0101 22.041C11.9814 22.7279 13.0854 23.2046 14.2514 23.4407C15.4003 23.6544 16.5787 23.6544 17.7276 23.4407C18.8732 23.247 19.9656 22.8157 20.9345 22.1745C22.4746 23.3762 24.0216 24.5687 25.5617 25.7704C23.8763 27.303 21.8217 28.3715 19.5992 28.8714C17.1461 29.4481 14.5897 29.4204 12.1496 28.7908C10.2198 28.2755 8.41715 27.3672 6.85477 26.1226C5.20123 24.8096 3.8506 23.155 2.89514 21.2721Z" fill="#319F43"/>
</g>
<defs>
<clipPath id="clip0_12_3699">
<rect width="29.467" height="29.467" fill="white" transform="translate(0.880737)"/>
</clipPath>
</defs>
</svg>
